<svg xmlns="http://www.w3.org/2000/svg" x="0px" y="0px" width="100" height="100" viewBox="0 0 50 50">
    <path d="M 12.5 14 C 6.1597701 14 1 19.15977 1 25.5 C 1 31.84023 6.1597701 37 12.5 37 C 16.542342 37 20.064378 34.911094 22.136719 31.748047 L 22.136719 31.746094 L 24.988281 27.353516 L 27.761719 31.644531 L 27.763672 31.648438 C 29.836013 34.811484 33.358048 36.900391 37.400391 36.900391 C 41.114116 36.900391 44.413628 35.144384 46.496094 32.404297 L 44.904297 31.195312 C 43.186763 33.455227 40.486665 34.900391 37.400391 34.900391 C 34.044709 34.900391 31.167449 33.190952 29.439453 30.556641 L 29.435547 30.552734 L 22.150391 19.273438 C 20.164742 16.07447 16.542342 14 12.5 14 z M 12.5 16 C 15.857658 16 18.836767 17.72714 20.451172 20.328125 L 20.455078 20.335938 L 23.800781 25.513672 L 20.460938 30.65625 C 18.733024 33.291176 15.856131 35 12.5 35 C 7.2402299 35 3 30.75977 3 25.5 C 3 20.24023 7.2402299 16 12.5 16 z"></path>
</svg>